<svg width="50" height="50" viewBox="0 0 50 50" fill="none" xmlns="http://www.w3.org/2000/svg">
<path d="M0 25C0 11.1929 11.1929 0 25 0C38.8071 0 50 11.1929 50 25C50 38.8071 38.8071 50 25 50C11.1929 50 0 38.8071 0 25Z" fill="#1A1D20"/>
<path d="M24.0672 29.5646C24.0672 31.1775 22.7367 32.485 21.0955 32.485C19.4542 32.485 18.1237 31.1775 18.1237 29.5646C18.1237 27.9517 19.4542 26.6441 21.0955 26.6441C22.7367 26.6441 24.0672 27.9517 24.0672 29.5646ZM19.6096 29.5646C19.6096 30.371 20.2748 31.0248 21.0955 31.0248C21.9161 31.0248 22.5813 30.371 22.5813 29.5646C22.5813 28.7581 21.9161 28.1044 21.0955 28.1044C20.2748 28.1044 19.6096 28.7581 19.6096 29.5646Z" fill="white"/>
<path fill-rule="evenodd" clip-rule="evenodd" d="M15.0171 18.5039C13.8471 19.0385 12.9091 20.2325 12.8483 21.7861C12.7515 24.2598 12.7818 27.4085 12.8142 30.7759C12.8313 32.5484 12.8489 34.3815 12.8489 36.2086C12.8489 37.2418 13.2843 37.9708 13.9308 38.4623C14.602 38.9727 15.5402 39.2516 16.5228 39.2477C17.5053 39.2438 18.4465 38.9573 19.1209 38.4427C19.7718 37.9461 20.204 37.2197 20.204 36.2086V32.193H21.987V36.2086C21.987 37.7894 21.2769 39.016 20.2144 39.8268C19.1754 40.6196 17.8321 40.9947 16.5301 40.9999C15.2282 41.0051 13.8819 40.6407 12.8397 39.8482C11.7728 39.037 11.0659 37.8038 11.0659 36.2086C11.0659 34.4278 11.0486 32.6189 11.0317 30.8567C10.9991 27.4578 10.9682 24.2327 11.0666 21.7187C11.1543 19.4758 12.5194 17.7128 14.2654 16.915C16.0274 16.1098 18.2161 16.2804 19.8115 17.9378C21.124 19.3014 22.6006 20.9363 23.7454 22.226C24.3186 22.8718 24.8102 23.4328 25.1587 23.8325C25.3329 24.0323 25.4714 24.1919 25.5664 24.3017C25.5947 24.3344 25.6192 24.3627 25.6396 24.3863C25.6534 24.4023 25.6654 24.4161 25.6755 24.4278L25.7129 24.4712L25.7134 24.4717L25.7135 24.4719C25.7135 24.4719 25.7136 24.472 25.033 25.0379C24.3524 25.6038 24.3524 25.6038 24.3524 25.6038L24.3159 25.5614C24.2916 25.5333 24.2555 25.4915 24.2085 25.4373C24.1146 25.3289 23.9774 25.1708 23.8046 24.9725C23.4589 24.5759 22.9708 24.0189 22.4017 23.3779C21.262 22.0939 19.804 20.4798 18.5162 19.142C17.5113 18.098 16.1711 17.9766 15.0171 18.5039Z" fill="white"/>
<path d="M25.9328 20.4354C25.9328 18.8225 27.2633 17.515 28.9045 17.515C30.5458 17.515 31.8763 18.8225 31.8763 20.4354C31.8763 22.0483 30.5458 23.3559 28.9045 23.3559C27.2633 23.3559 25.9328 22.0483 25.9328 20.4354ZM30.3904 20.4354C30.3904 19.629 29.7252 18.9752 28.9045 18.9752C28.0839 18.9752 27.4187 19.629 27.4187 20.4354C27.4187 21.2419 28.0839 21.8956 28.9045 21.8956C29.7252 21.8956 30.3904 21.2419 30.3904 20.4354Z" fill="white"/>
<path fill-rule="evenodd" clip-rule="evenodd" d="M34.9829 31.4961C36.1529 30.9615 37.0909 29.7675 37.1517 28.2139C37.2485 25.7402 37.2182 22.5915 37.1858 19.2241C37.1687 17.4516 37.1511 15.6185 37.1511 13.7914C37.1511 12.7582 36.7157 12.0292 36.0692 11.5377C35.398 11.0273 34.4598 10.7484 33.4772 10.7523C32.4947 10.7562 31.5535 11.0427 30.8791 11.5573C30.2282 12.0539 29.796 12.7803 29.796 13.7914L29.796 17.807H28.013L28.013 13.7914C28.013 12.2106 28.7231 10.984 29.7856 10.1732C30.8246 9.38045 32.1679 9.00526 33.4699 9.00005C34.7718 8.99485 36.1181 9.35932 37.1603 10.1518C38.2272 10.963 38.9341 12.1962 38.9341 13.7914C38.9341 15.5722 38.9514 17.3811 38.9683 19.1433C39.0009 22.5422 39.0318 25.7673 38.9334 28.2813C38.8457 30.5242 37.4806 32.2872 35.7346 33.085C33.9726 33.8902 31.7839 33.7196 30.1885 32.0622C28.876 30.6986 27.3994 29.0637 26.2546 27.774C25.6814 27.1282 25.1898 26.5672 24.8414 26.1675C24.6671 25.9677 24.5286 25.8081 24.4336 25.6983C24.4053 25.6656 24.3808 25.6373 24.3604 25.6137C24.3466 25.5977 24.3346 25.5839 24.3245 25.5722L24.2871 25.5288L24.2866 25.5283L24.2865 25.5281C24.2865 25.5281 24.2864 25.528 24.967 24.9621C25.6476 24.3962 25.6476 24.3962 25.6476 24.3962L25.6841 24.4386C25.7084 24.4667 25.7445 24.5085 25.7915 24.5627C25.8854 24.6711 26.0226 24.8292 26.1954 25.0275C26.5411 25.4241 27.0292 25.9811 27.5983 26.6221C28.738 27.9061 30.196 29.5202 31.4838 30.858C32.4887 31.902 33.8289 32.0234 34.9829 31.4961Z" fill="white"/>
<path d="M24.0672 29.5646C24.0672 31.1775 22.7367 32.485 21.0955 32.485C19.4542 32.485 18.1237 31.1775 18.1237 29.5646C18.1237 27.9517 19.4542 26.6441 21.0955 26.6441C22.7367 26.6441 24.0672 27.9517 24.0672 29.5646ZM19.6096 29.5646C19.6096 30.371 20.2748 31.0248 21.0955 31.0248C21.9161 31.0248 22.5813 30.371 22.5813 29.5646C22.5813 28.7581 21.9161 28.1044 21.0955 28.1044C20.2748 28.1044 19.6096 28.7581 19.6096 29.5646Z" stroke="white" stroke-width="1.5"/>
<path fill-rule="evenodd" clip-rule="evenodd" d="M15.0171 18.5039C13.8471 19.0385 12.9091 20.2325 12.8483 21.7861C12.7515 24.2598 12.7818 27.4085 12.8142 30.7759C12.8313 32.5484 12.8489 34.3815 12.8489 36.2086C12.8489 37.2418 13.2843 37.9708 13.9308 38.4623C14.602 38.9727 15.5402 39.2516 16.5228 39.2477C17.5053 39.2438 18.4465 38.9573 19.1209 38.4427C19.7718 37.9461 20.204 37.2197 20.204 36.2086V32.193H21.987V36.2086C21.987 37.7894 21.2769 39.016 20.2144 39.8268C19.1754 40.6196 17.8321 40.9947 16.5301 40.9999C15.2282 41.0051 13.8819 40.6407 12.8397 39.8482C11.7728 39.037 11.0659 37.8038 11.0659 36.2086C11.0659 34.4278 11.0486 32.6189 11.0317 30.8567C10.9991 27.4578 10.9682 24.2327 11.0666 21.7187C11.1543 19.4758 12.5194 17.7128 14.2654 16.915C16.0274 16.1098 18.2161 16.2804 19.8115 17.9378C21.124 19.3014 22.6006 20.9363 23.7454 22.226C24.3186 22.8718 24.8102 23.4328 25.1587 23.8325C25.3329 24.0323 25.4714 24.1919 25.5664 24.3017C25.5947 24.3344 25.6192 24.3627 25.6396 24.3863C25.6534 24.4023 25.6654 24.4161 25.6755 24.4278L25.7129 24.4712L25.7134 24.4717L25.7135 24.4719C25.7135 24.4719 25.7136 24.472 25.033 25.0379C24.3524 25.6038 24.3524 25.6038 24.3524 25.6038L24.3159 25.5614C24.2916 25.5333 24.2555 25.4915 24.2085 25.4373C24.1146 25.3289 23.9774 25.1708 23.8046 24.9725C23.4589 24.5759 22.9708 24.0189 22.4017 23.3779C21.262 22.0939 19.804 20.4798 18.5162 19.142C17.5113 18.098 16.1711 17.9766 15.0171 18.5039Z" stroke="white" stroke-width="1.5"/>
<path d="M25.9328 20.4354C25.9328 18.8225 27.2633 17.515 28.9045 17.515C30.5458 17.515 31.8763 18.8225 31.8763 20.4354C31.8763 22.0483 30.5458 23.3559 28.9045 23.3559C27.2633 23.3559 25.9328 22.0483 25.9328 20.4354ZM30.3904 20.4354C30.3904 19.629 29.7252 18.9752 28.9045 18.9752C28.0839 18.9752 27.4187 19.629 27.4187 20.4354C27.4187 21.2419 28.0839 21.8956 28.9045 21.8956C29.7252 21.8956 30.3904 21.2419 30.3904 20.4354Z" stroke="white" stroke-width="1.5"/>
<path fill-rule="evenodd" clip-rule="evenodd" d="M34.9829 31.4961C36.1529 30.9615 37.0909 29.7675 37.1517 28.2139C37.2485 25.7402 37.2182 22.5915 37.1858 19.2241C37.1687 17.4516 37.1511 15.6185 37.1511 13.7914C37.1511 12.7582 36.7157 12.0292 36.0692 11.5377C35.398 11.0273 34.4598 10.7484 33.4772 10.7523C32.4947 10.7562 31.5535 11.0427 30.8791 11.5573C30.2282 12.0539 29.796 12.7803 29.796 13.7914L29.796 17.807H28.013L28.013 13.7914C28.013 12.2106 28.7231 10.984 29.7856 10.1732C30.8246 9.38045 32.1679 9.00526 33.4699 9.00005C34.7718 8.99485 36.1181 9.35932 37.1603 10.1518C38.2272 10.963 38.9341 12.1962 38.9341 13.7914C38.9341 15.5722 38.9514 17.3811 38.9683 19.1433C39.0009 22.5422 39.0318 25.7673 38.9334 28.2813C38.8457 30.5242 37.4806 32.2872 35.7346 33.085C33.9726 33.8902 31.7839 33.7196 30.1885 32.0622C28.876 30.6986 27.3994 29.0637 26.2546 27.774C25.6814 27.1282 25.1898 26.5672 24.8414 26.1675C24.6671 25.9677 24.5286 25.8081 24.4336 25.6983C24.4053 25.6656 24.3808 25.6373 24.3604 25.6137C24.3466 25.5977 24.3346 25.5839 24.3245 25.5722L24.2871 25.5288L24.2866 25.5283L24.2865 25.5281C24.2865 25.5281 24.2864 25.528 24.967 24.9621C25.6476 24.3962 25.6476 24.3962 25.6476 24.3962L25.6841 24.4386C25.7084 24.4667 25.7445 24.5085 25.7915 24.5627C25.8854 24.6711 26.0226 24.8292 26.1954 25.0275C26.5411 25.4241 27.0292 25.9811 27.5983 26.6221C28.738 27.9061 30.196 29.5202 31.4838 30.858C32.4887 31.902 33.8289 32.0234 34.9829 31.4961Z" stroke="white" stroke-width="1.5"/>
</svg>
