<svg width="42" height="48" viewBox="0 0 42 48" fill="none" xmlns="http://www.w3.org/2000/svg">
<path d="M19.6674 30.5616C19.6674 32.8802 17.7667 34.7597 15.4221 34.7597C13.0775 34.7597 11.1768 32.8802 11.1768 30.5616C11.1768 28.243 13.0775 26.3635 15.4221 26.3635C17.7667 26.3635 19.6674 28.243 19.6674 30.5616ZM13.2994 30.5616C13.2994 31.7209 14.2498 32.6607 15.4221 32.6607C16.5944 32.6607 17.5447 31.7209 17.5447 30.5616C17.5447 29.4023 16.5944 28.4625 15.4221 28.4625C14.2498 28.4625 13.2994 29.4023 13.2994 30.5616Z" fill="white"/>
<path fill-rule="evenodd" clip-rule="evenodd" d="M6.73877 14.6618C5.06734 15.4303 3.72726 17.1467 3.64041 19.38C3.50211 22.9359 3.54543 27.4623 3.59175 32.3029C3.61613 34.8509 3.64135 37.4859 3.64135 40.1124C3.64135 41.5976 4.26326 42.6455 5.18685 43.3521C6.14568 44.0857 7.486 44.4867 8.88975 44.4811C10.2933 44.4754 11.6379 44.0636 12.6013 43.3239C13.5311 42.61 14.1485 41.5659 14.1485 40.1124V34.3399H16.6957V40.1124C16.6957 42.3847 15.6813 44.148 14.1634 45.3135C12.6792 46.4531 10.7601 46.9924 8.90011 46.9999C7.04027 47.0074 5.117 46.4835 3.62814 45.3443C2.10403 44.1782 1.09415 42.4054 1.09415 40.1124C1.09415 37.5525 1.06938 34.9521 1.04525 32.419C0.998711 27.533 0.954549 22.897 1.09509 19.2832C1.22049 16.0589 3.17053 13.5246 5.66482 12.3777C8.182 11.2203 11.3087 11.4655 13.5879 13.8481C15.4629 15.8083 17.5722 18.1584 19.2077 20.0124C20.0265 20.9406 20.7289 21.7471 21.2266 22.3217C21.4756 22.609 21.6734 22.8384 21.8092 22.9962C21.8496 23.0432 21.8846 23.0838 21.9137 23.1178C21.9335 23.1408 21.9506 23.1607 21.965 23.1774L22.0184 23.2398L22.0191 23.2406L22.0193 23.2409C22.0193 23.2409 22.0194 23.241 21.0472 24.0545C20.0749 24.868 20.0749 24.868 20.0749 24.868L20.0227 24.8071C19.988 24.7666 19.9364 24.7065 19.8693 24.6286C19.7352 24.4728 19.5392 24.2455 19.2923 23.9605C18.7984 23.3904 18.1011 22.5897 17.2882 21.6682C15.66 19.8225 13.5771 17.5023 11.7374 15.5791C10.3019 14.0784 8.3873 13.9038 6.73877 14.6618Z" fill="white"/>
<path d="M22.3326 17.4384C22.3326 15.1198 24.2333 13.2403 26.5779 13.2403C28.9225 13.2403 30.8232 15.1198 30.8232 17.4384C30.8232 19.757 28.9225 21.6365 26.5779 21.6365C24.2333 21.6365 22.3326 19.757 22.3326 17.4384ZM28.7006 17.4384C28.7006 16.2791 27.7502 15.3393 26.5779 15.3393C25.4056 15.3393 24.4553 16.2791 24.4553 17.4384C24.4553 18.5977 25.4056 19.5375 26.5779 19.5375C27.7502 19.5375 28.7006 18.5977 28.7006 17.4384Z" fill="white"/>
<path fill-rule="evenodd" clip-rule="evenodd" d="M35.2612 33.3382C36.9327 32.5697 38.2727 30.8533 38.3596 28.62C38.4979 25.0641 38.4546 20.5377 38.4083 15.6971C38.3839 13.1491 38.3587 10.5141 38.3587 7.88764C38.3587 6.40239 37.7367 5.35454 36.8132 4.64789C35.8543 3.91427 34.514 3.5133 33.1103 3.51894C31.7067 3.52458 30.3621 3.93639 29.3987 4.6761C28.4689 5.38997 27.8515 6.43414 27.8515 7.88764L27.8515 13.6601H25.3043L25.3043 7.88764C25.3043 5.61529 26.3187 3.85195 27.8366 2.68651C29.3208 1.54689 31.2399 1.00755 33.0999 1.00008C34.9597 0.992603 36.883 1.51653 38.3719 2.65568C39.896 3.82179 40.9058 5.59456 40.9058 7.88764C40.9058 10.4475 40.9306 13.0479 40.9547 15.581C41.0013 20.467 41.0455 25.103 40.9049 28.7168C40.7795 31.9411 38.8295 34.4754 36.3352 35.6223C33.818 36.7797 30.6913 36.5345 28.4121 34.1519C26.5371 32.1917 24.4278 29.8416 22.7923 27.9876C21.9735 27.0594 21.2711 26.2529 20.7734 25.6783C20.5244 25.391 20.3266 25.1616 20.1908 25.0038C20.1504 24.9568 20.1154 24.9162 20.0863 24.8822C20.0665 24.8592 20.0494 24.8393 20.035 24.8226L19.9816 24.7602L19.9809 24.7594L19.9807 24.7591C19.9807 24.7591 19.9806 24.759 20.9528 23.9455C21.9251 23.132 21.9251 23.132 21.9251 23.132L21.9773 23.1929C22.0121 23.2334 22.0636 23.2935 22.1307 23.3714C22.2648 23.5272 22.4608 23.7545 22.7077 24.0395C23.2016 24.6096 23.8989 25.4103 24.7118 26.3318C26.34 28.1775 28.4229 30.4977 30.2626 32.4209C31.6981 33.9216 33.6127 34.0962 35.2612 33.3382Z" fill="white"/>
<path d="M19.6674 30.5616C19.6674 32.8802 17.7667 34.7597 15.4221 34.7597C13.0775 34.7597 11.1768 32.8802 11.1768 30.5616C11.1768 28.243 13.0775 26.3635 15.4221 26.3635C17.7667 26.3635 19.6674 28.243 19.6674 30.5616ZM13.2994 30.5616C13.2994 31.7209 14.2498 32.6607 15.4221 32.6607C16.5944 32.6607 17.5447 31.7209 17.5447 30.5616C17.5447 29.4023 16.5944 28.4625 15.4221 28.4625C14.2498 28.4625 13.2994 29.4023 13.2994 30.5616Z" stroke="white" stroke-width="1.5"/>
<path fill-rule="evenodd" clip-rule="evenodd" d="M6.73877 14.6618C5.06734 15.4303 3.72726 17.1467 3.64041 19.38C3.50211 22.9359 3.54543 27.4623 3.59175 32.3029C3.61613 34.8509 3.64135 37.4859 3.64135 40.1124C3.64135 41.5976 4.26326 42.6455 5.18685 43.3521C6.14568 44.0857 7.486 44.4867 8.88975 44.4811C10.2933 44.4754 11.6379 44.0636 12.6013 43.3239C13.5311 42.61 14.1485 41.5659 14.1485 40.1124V34.3399H16.6957V40.1124C16.6957 42.3847 15.6813 44.148 14.1634 45.3135C12.6792 46.4531 10.7601 46.9924 8.90011 46.9999C7.04027 47.0074 5.117 46.4835 3.62814 45.3443C2.10403 44.1782 1.09415 42.4054 1.09415 40.1124C1.09415 37.5525 1.06938 34.9521 1.04525 32.419C0.998711 27.533 0.954549 22.897 1.09509 19.2832C1.22049 16.0589 3.17053 13.5246 5.66482 12.3777C8.182 11.2203 11.3087 11.4655 13.5879 13.8481C15.4629 15.8083 17.5722 18.1584 19.2077 20.0124C20.0265 20.9406 20.7289 21.7471 21.2266 22.3217C21.4756 22.609 21.6734 22.8384 21.8092 22.9962C21.8496 23.0432 21.8846 23.0838 21.9137 23.1178C21.9335 23.1408 21.9506 23.1607 21.965 23.1774L22.0184 23.2398L22.0191 23.2406L22.0193 23.2409C22.0193 23.2409 22.0194 23.241 21.0472 24.0545C20.0749 24.868 20.0749 24.868 20.0749 24.868L20.0227 24.8071C19.988 24.7666 19.9364 24.7065 19.8693 24.6286C19.7352 24.4728 19.5392 24.2455 19.2923 23.9605C18.7984 23.3904 18.1011 22.5897 17.2882 21.6682C15.66 19.8225 13.5771 17.5023 11.7374 15.5791C10.3019 14.0784 8.3873 13.9038 6.73877 14.6618Z" stroke="white" stroke-width="1.5"/>
<path d="M22.3326 17.4384C22.3326 15.1198 24.2333 13.2403 26.5779 13.2403C28.9225 13.2403 30.8232 15.1198 30.8232 17.4384C30.8232 19.757 28.9225 21.6365 26.5779 21.6365C24.2333 21.6365 22.3326 19.757 22.3326 17.4384ZM28.7006 17.4384C28.7006 16.2791 27.7502 15.3393 26.5779 15.3393C25.4056 15.3393 24.4553 16.2791 24.4553 17.4384C24.4553 18.5977 25.4056 19.5375 26.5779 19.5375C27.7502 19.5375 28.7006 18.5977 28.7006 17.4384Z" stroke="white" stroke-width="1.5"/>
<path fill-rule="evenodd" clip-rule="evenodd" d="M35.2612 33.3382C36.9327 32.5697 38.2727 30.8533 38.3596 28.62C38.4979 25.0641 38.4546 20.5377 38.4083 15.6971C38.3839 13.1491 38.3587 10.5141 38.3587 7.88764C38.3587 6.40239 37.7367 5.35454 36.8132 4.64789C35.8543 3.91427 34.514 3.5133 33.1103 3.51894C31.7067 3.52458 30.3621 3.93639 29.3987 4.6761C28.4689 5.38997 27.8515 6.43414 27.8515 7.88764L27.8515 13.6601H25.3043L25.3043 7.88764C25.3043 5.61529 26.3187 3.85195 27.8366 2.68651C29.3208 1.54689 31.2399 1.00755 33.0999 1.00008C34.9597 0.992603 36.883 1.51653 38.3719 2.65568C39.896 3.82179 40.9058 5.59456 40.9058 7.88764C40.9058 10.4475 40.9306 13.0479 40.9547 15.581C41.0013 20.467 41.0455 25.103 40.9049 28.7168C40.7795 31.9411 38.8295 34.4754 36.3352 35.6223C33.818 36.7797 30.6913 36.5345 28.4121 34.1519C26.5371 32.1917 24.4278 29.8416 22.7923 27.9876C21.9735 27.0594 21.2711 26.2529 20.7734 25.6783C20.5244 25.391 20.3266 25.1616 20.1908 25.0038C20.1504 24.9568 20.1154 24.9162 20.0863 24.8822C20.0665 24.8592 20.0494 24.8393 20.035 24.8226L19.9816 24.7602L19.9809 24.7594L19.9807 24.7591C19.9807 24.7591 19.9806 24.759 20.9528 23.9455C21.9251 23.132 21.9251 23.132 21.9251 23.132L21.9773 23.1929C22.0121 23.2334 22.0636 23.2935 22.1307 23.3714C22.2648 23.5272 22.4608 23.7545 22.7077 24.0395C23.2016 24.6096 23.8989 25.4103 24.7118 26.3318C26.34 28.1775 28.4229 30.4977 30.2626 32.4209C31.6981 33.9216 33.6127 34.0962 35.2612 33.3382Z" stroke="white" stroke-width="1.5"/>
</svg>
